<svg width="488" height="282" viewBox="0 0 488 282" fill="none" xmlns="http://www.w3.org/2000/svg">
<path d="M0 12.8C0 8.31957 0 6.07937 0.871948 4.36808C1.63893 2.86278 2.86278 1.63893 4.36808 0.871948C6.07937 0 8.31958 0 12.8 0H475.2C479.68 0 481.921 0 483.632 0.871948C485.137 1.63893 486.361 2.86278 487.128 4.36808C488 6.07937 488 8.31958 488 12.8V269.2C488 273.68 488 275.921 487.128 277.632C486.361 279.137 485.137 280.361 483.632 281.128C481.921 282 479.68 282 475.2 282H12.8C8.31958 282 6.07937 282 4.36808 281.128C2.86278 280.361 1.63893 279.137 0.871948 277.632C0 275.921 0 273.68 0 269.2V12.8Z" fill="url(#paint0_linear_0_1)"/>
<path d="M519.549 1.66456C519.549 -2.3105 515.972 -5.83768 509.443 -8.24511C503.709 -10.3726 496.101 -11.5483 488.096 -11.5483C480.091 -11.5483 472.483 -10.3726 466.749 -8.24511C460.163 -5.83768 456.586 -2.3105 456.586 1.66456V20.6441C454.088 20.4202 451.477 20.2522 448.808 20.2522C440.803 20.2522 433.195 21.4279 427.461 23.5554C420.932 26.0189 417.355 29.546 417.355 33.5211V74.3355C417.355 78.3106 420.932 81.8378 427.461 84.2452C433.195 86.3727 440.803 87.5484 448.808 87.5484C456.814 87.5484 464.421 86.3727 470.155 84.2452C475.833 82.1177 479.296 79.2064 480.091 75.8472C482.703 76.1271 485.371 76.2391 488.039 76.2391C496.045 76.2391 503.652 75.0634 509.386 72.9359C515.915 70.5284 519.492 67.0013 519.492 63.0262V62.8582V62.6903L519.549 1.66456V1.66456ZM514.496 47.8537C514.496 51.2689 504.163 56.1398 488.039 56.1398C485.371 56.1398 482.759 56.0278 480.261 55.7479V45.5583C482.816 45.8382 485.371 45.9502 488.039 45.9502C496.045 45.9502 503.652 44.7745 509.386 42.647C511.374 41.9191 513.077 41.0793 514.496 40.1835V47.8537V47.8537ZM475.265 47.7418C475.265 51.157 464.932 56.0278 448.808 56.0278C432.685 56.0278 422.352 51.101 422.352 47.7418V40.9674C423.771 41.8631 425.474 42.7029 427.461 43.4308C433.195 45.5583 440.803 46.734 448.808 46.734C456.814 46.734 464.421 45.5583 470.155 43.4308C472.143 42.7029 473.846 41.8631 475.265 40.9674V47.7418V47.7418ZM422.352 55.188C423.771 56.0838 425.474 56.9236 427.461 57.6514C433.195 59.7789 440.803 60.9547 448.808 60.9547C456.814 60.9547 464.421 59.7789 470.155 57.6514C472.143 56.9236 473.846 56.0838 475.265 55.188V61.0666C475.265 64.4818 464.932 69.3527 448.808 69.3527C432.685 69.3527 422.352 64.4259 422.352 61.0666V55.188V55.188ZM514.496 32.7373C514.496 36.1525 504.163 41.0233 488.039 41.0233C485.371 41.0233 482.759 40.9114 480.261 40.6314V33.5211C480.261 32.4573 479.977 31.3936 479.466 30.3858C482.248 30.6658 485.087 30.8337 488.039 30.8337C496.045 30.8337 503.652 29.658 509.386 27.5305C511.374 26.8027 513.077 25.9629 514.496 25.0671V32.7373V32.7373ZM514.496 17.5648C514.496 20.98 504.163 25.8509 488.039 25.8509C471.915 25.8509 461.583 20.9241 461.583 17.5648V9.11082C463.002 10.0066 464.705 10.8464 466.692 11.5742C472.426 13.7017 480.034 14.8775 488.039 14.8775C496.045 14.8775 503.652 13.7017 509.386 11.5742C511.374 10.8464 513.077 10.0066 514.496 9.11082V17.5648V17.5648ZM488.039 -6.67748C504.163 -6.67748 514.496 -1.75064 514.496 1.60858C514.496 4.96779 504.22 9.95062 488.039 9.95062C471.915 9.95062 461.583 5.02378 461.583 1.66456C461.583 -1.69465 471.915 -6.67748 488.039 -6.67748V-6.67748ZM448.808 25.1791C452.385 25.1791 455.621 25.403 458.574 25.8509C458.687 25.8509 458.744 25.9069 458.857 25.9069C469.077 27.3625 475.265 30.8897 475.265 33.5211C475.265 36.9363 464.932 41.8072 448.808 41.8072C432.685 41.8072 422.352 36.8803 422.352 33.5211C422.352 30.1619 432.628 25.1791 448.808 25.1791ZM448.808 82.6776C432.685 82.6776 422.352 77.7507 422.352 74.3915V74.2236V68.5129C423.771 69.4087 425.474 70.2485 427.461 70.9763C433.195 73.1038 440.803 74.2795 448.808 74.2795C456.814 74.2795 464.421 73.1038 470.155 70.9763C472.143 70.2485 473.846 69.4087 475.265 68.5129V74.3915C475.265 77.7507 464.932 82.6776 448.808 82.6776V82.6776ZM488.039 71.3122C485.371 71.3122 482.759 71.2003 480.261 70.9203V60.7307C482.816 61.0107 485.371 61.1226 488.039 61.1226C496.045 61.1226 503.652 59.9469 509.386 57.8194C511.374 57.0916 513.077 56.2518 514.496 55.356V63.0822C514.496 66.3854 504.22 71.3122 488.039 71.3122Z" fill="white" fill-opacity="0.2"/>
<rect x="376" y="-56" width="188" height="188" rx="94" stroke="white" stroke-opacity="0.1" stroke-width="4"/>
<g opacity="0.2">
<path d="M115.904 36.56V37.6304C115.904 38.7184 115.945 39.8006 116.027 40.8769C116.109 41.9532 116.226 43.0178 116.378 44.0708L114.009 44.527C113.751 42.6435 113.032 41.2162 111.85 40.2452C110.669 39.2742 109.066 38.7886 107.042 38.7886C104.655 38.7886 102.795 39.5608 101.462 41.105C100.14 42.6376 99.4786 44.8019 99.4786 47.598C99.4786 50.6865 100.204 53.0907 101.655 54.8105C103.105 56.5185 105.123 57.3725 107.709 57.3725C109.37 57.3725 110.815 56.9514 112.043 56.109C113.283 55.2667 114.307 54.0091 115.114 52.3361L117.273 53.3013C116.735 54.4127 116.255 55.4948 115.834 56.5478C115.413 57.589 115.044 58.6185 114.728 59.6363C112.973 60.233 111.406 60.6717 110.025 60.9524C108.657 61.2449 107.393 61.3912 106.235 61.3912C101.789 61.3912 98.2093 60.1979 95.4951 57.8113C92.7926 55.413 91.4414 52.2601 91.4414 48.3526C91.4414 44.4217 92.9213 41.2103 95.8812 38.7184C98.841 36.2266 102.667 34.9806 107.358 34.9806C108.785 34.9806 110.207 35.1093 111.622 35.3667C113.038 35.6241 114.465 36.0218 115.904 36.56Z" fill="white"/>
<path d="M138.401 56.9338L139.261 58.6887C137.647 59.6363 136.313 60.3207 135.26 60.7419C134.207 61.1747 133.336 61.3912 132.645 61.3912C131.628 61.3912 130.855 61.163 130.329 60.7068C129.814 60.2622 129.539 59.5954 129.504 58.7062C128.112 59.6772 126.965 60.3675 126.065 60.777C125.164 61.1864 124.351 61.3912 123.625 61.3912C122.245 61.3912 121.063 60.8705 120.081 59.8293C119.11 58.7881 118.624 57.5363 118.624 56.074C118.624 53.7224 121.344 51.9383 126.784 50.7216C127.919 50.4643 128.808 50.2595 129.452 50.1074C129.463 49.7565 129.475 49.3821 129.487 48.9843C129.51 48.5749 129.522 48.335 129.522 48.2649C129.522 47.3991 129.323 46.7615 128.925 46.3521C128.527 45.9309 127.907 45.7203 127.065 45.7203C126.223 45.7203 125.556 45.8724 125.064 46.1766C124.585 46.4808 124.345 46.8902 124.345 47.405V47.7735C124.345 48.2882 124.099 48.6743 123.608 48.9317C123.117 49.1891 122.368 49.3178 121.362 49.3178C120.695 49.3178 120.192 49.1949 119.852 48.9492C119.513 48.6919 119.344 48.3116 119.344 47.8086C119.344 47.4225 119.496 47.0014 119.8 46.5451C120.116 46.0888 120.566 45.6209 121.151 45.1412C122.192 44.2989 123.415 43.632 124.819 43.1407C126.223 42.6376 127.597 42.3861 128.943 42.3861C131.236 42.3861 132.95 42.9125 134.084 43.9655C135.231 45.0184 135.804 46.6094 135.804 48.7387C135.804 49.23 135.757 50.2537 135.664 51.8097C135.57 53.3656 135.523 54.6759 135.523 55.7405C135.523 56.3372 135.623 56.7876 135.822 57.0918C136.032 57.3959 136.336 57.548 136.734 57.548C136.91 57.548 137.12 57.5012 137.366 57.4076C137.612 57.314 137.957 57.1561 138.401 56.9338ZM129.434 52.5116C129.177 52.5935 128.796 52.7105 128.293 52.8626C125.778 53.6113 124.52 54.5121 124.52 55.565C124.52 56.15 124.719 56.6531 125.117 57.0742C125.527 57.4837 126.024 57.6884 126.609 57.6884C126.936 57.6884 127.311 57.6007 127.732 57.4252C128.165 57.2497 128.726 56.9397 129.416 56.4951L129.434 52.5116Z" fill="white"/>
<path d="M149.018 42.351C148.948 43.1699 148.884 43.9889 148.825 44.8078C148.778 45.615 148.737 46.434 148.702 47.2646C149.743 45.4746 150.609 44.2696 151.299 43.6496C152.001 43.0178 152.762 42.702 153.581 42.702C154.388 42.702 155.067 43.0178 155.616 43.6496C156.178 44.2813 156.459 45.0535 156.459 45.966C156.459 46.7849 156.248 47.4518 155.827 47.9665C155.406 48.4813 154.874 48.7387 154.23 48.7387C153.867 48.7387 153.394 48.5632 152.809 48.2122C152.235 47.8495 151.785 47.6682 151.457 47.6682C151.118 47.6682 150.732 47.8027 150.299 48.0718C149.866 48.3409 149.393 48.7445 148.878 49.2827C148.866 49.7623 148.854 50.2595 148.843 50.7743C148.843 51.289 148.843 51.9617 148.843 52.7924V54.8456C148.843 56.5653 149.036 57.6475 149.422 58.092C149.82 58.5366 150.598 58.7589 151.756 58.7589C151.966 58.7589 152.136 58.7589 152.265 58.7589C152.393 58.7472 152.51 58.7413 152.616 58.7413V60.6717C151.142 60.5781 149.82 60.5079 148.65 60.4611C147.491 60.4143 146.439 60.3909 145.491 60.3909C144.941 60.3909 144.157 60.4143 143.139 60.4611C142.122 60.5079 141.004 60.5781 139.788 60.6717V58.6887C139.846 58.6887 139.94 58.6945 140.068 58.7062C140.197 58.7179 140.279 58.7238 140.314 58.7238C141.893 58.7238 142.683 56.9221 142.683 53.3188C142.683 52.7222 142.689 52.2601 142.701 51.9325L142.736 49.9671V48.6334C142.736 47.522 142.595 46.8025 142.315 46.4749C142.046 46.1356 141.548 45.966 140.823 45.966C140.683 45.966 140.525 45.9718 140.349 45.9835C140.185 45.9835 140.01 45.9894 139.823 46.0011L139.717 44.1409C141.215 43.9772 142.736 43.749 144.28 43.4566C145.836 43.1524 147.415 42.7839 149.018 42.351Z" fill="white"/>
<path d="M166.11 57.3725C166.567 57.6416 166.994 57.8405 167.391 57.9692C167.789 58.0979 168.175 58.1622 168.55 58.1622C169.743 58.1622 170.685 57.6884 171.375 56.7408C172.077 55.7815 172.428 54.4653 172.428 52.7924C172.428 50.7333 172.054 49.1189 171.305 47.949C170.568 46.7791 169.55 46.1941 168.251 46.1941C167.9 46.1941 167.532 46.2643 167.146 46.4047C166.771 46.5334 166.362 46.7381 165.917 47.0189C165.917 47.2646 165.912 47.6331 165.9 48.1245C165.865 49.7974 165.847 50.9264 165.847 51.5113C165.847 53.196 165.865 54.518 165.9 55.4773C165.947 56.4249 166.017 57.0567 166.11 57.3725ZM166.181 33.5065C166.052 35.741 165.958 37.7416 165.9 39.5081C165.841 41.2747 165.812 42.9242 165.812 44.4568C166.748 43.7315 167.625 43.2109 168.444 42.895C169.275 42.5791 170.147 42.4212 171.059 42.4212C173.399 42.4212 175.359 43.2635 176.938 44.9482C178.529 46.6328 179.324 48.7211 179.324 51.213C179.324 54.2197 178.213 56.6589 175.99 58.5307C173.779 60.3909 170.866 61.321 167.251 61.321C165.8 61.321 164.437 61.2157 163.162 61.0051C161.887 60.7945 160.688 60.4786 159.565 60.0575C159.635 55.9745 159.694 50.2303 159.74 42.8248V42.1229V38.7886C159.74 38.192 159.594 37.7416 159.302 37.4374C159.021 37.1332 158.594 36.9811 158.021 36.9811H157.038L156.968 35.0508C158.43 34.9455 159.922 34.7642 161.443 34.5068C162.975 34.2494 164.554 33.916 166.181 33.5065Z" fill="white"/>
<path d="M191.942 45.4746C190.819 45.4746 189.965 45.9367 189.38 46.861C188.795 47.7735 188.502 49.1189 188.502 50.8971C188.502 53.272 188.818 55.0737 189.45 56.3021C190.082 57.5188 191.024 58.1271 192.275 58.1271C193.445 58.1271 194.323 57.6592 194.908 56.7232C195.493 55.7756 195.785 54.36 195.785 52.4765C195.785 50.1835 195.457 48.4462 194.802 47.2646C194.159 46.0713 193.205 45.4746 191.942 45.4746ZM192.135 42.3861C195.329 42.3861 197.903 43.2694 199.856 45.0359C201.822 46.7908 202.804 49.0662 202.804 51.8623C202.804 54.6233 201.804 56.8929 199.804 58.6711C197.815 60.4377 195.247 61.321 192.1 61.321C188.964 61.321 186.414 60.4728 184.449 58.7764C182.495 57.0684 181.518 54.8631 181.518 52.1606C181.518 49.3061 182.512 46.9663 184.501 45.1412C186.49 43.3045 189.035 42.3861 192.135 42.3861Z" fill="white"/>
<path d="M213.456 42.3861L213.088 45.4044C214.386 44.4217 215.58 43.6964 216.668 43.2284C217.756 42.7605 218.791 42.5265 219.774 42.5265C221.716 42.5265 223.178 43.1114 224.161 44.2813C225.144 45.4395 225.635 47.1651 225.635 49.4582C225.635 49.9027 225.612 50.8913 225.565 52.4239C225.518 53.9447 225.495 55.2433 225.495 56.3196C225.495 57.2789 225.647 57.9282 225.951 58.2675C226.267 58.5951 226.858 58.7589 227.723 58.7589H228.039L228.004 60.6717C226.799 60.6015 225.717 60.5488 224.758 60.5137C223.81 60.4786 223.014 60.4611 222.371 60.4611C221.845 60.4611 221.148 60.4786 220.283 60.5137C219.429 60.5488 218.423 60.6015 217.264 60.6717V58.7589H217.44C218.259 58.7589 218.803 58.5249 219.072 58.0569C219.353 57.5773 219.493 56.1851 219.493 53.8804V51.9676C219.493 49.8033 219.277 48.3643 218.844 47.6507C218.423 46.937 217.691 46.5802 216.65 46.5802C216.264 46.5802 215.82 46.6562 215.317 46.8083C214.825 46.9604 214.229 47.2061 213.527 47.5454C213.468 48.2473 213.427 49.0428 213.404 49.932C213.392 50.8094 213.386 52.2425 213.386 54.2314V55.8283C213.386 57.1035 213.527 57.9107 213.807 58.25C214.1 58.5892 214.667 58.7589 215.51 58.7589V60.6717C214.562 60.6015 213.632 60.5488 212.719 60.5137C211.819 60.4786 210.9 60.4611 209.964 60.4611C209.11 60.4611 208.233 60.4786 207.332 60.5137C206.443 60.5488 205.524 60.6015 204.577 60.6717V58.7589H204.998C206.507 58.7589 207.273 57.1912 207.297 54.0559C207.297 53.8804 207.303 53.7517 207.314 53.6698L207.349 51.1428V48.9843C207.349 47.8729 207.203 47.1183 206.911 46.7206C206.63 46.3228 206.115 46.1239 205.367 46.1239C205.179 46.1239 205.027 46.1298 204.91 46.1415C204.793 46.1415 204.682 46.1415 204.577 46.1415V44.2462C205.992 44.0825 207.426 43.8485 208.876 43.5443C210.339 43.2284 211.865 42.8424 213.456 42.3861Z" fill="white"/>
<path d="M248.118 46.2994H249.241C249.885 46.2994 250.926 46.276 252.365 46.2292H252.576C253.254 45.773 253.775 45.2348 254.137 44.6148C254.512 43.983 254.699 43.322 254.699 42.6318C254.699 41.4619 254.319 40.5552 253.558 39.9117C252.798 39.2566 251.727 38.929 250.347 38.929C250.16 38.929 249.744 38.9641 249.101 39.0343C248.703 39.0811 248.387 39.1162 248.153 39.1396V42.1229V43.3162C248.153 43.6671 248.148 44.176 248.136 44.8429C248.124 45.5097 248.118 45.9952 248.118 46.2994ZM248.153 57.0742C248.598 57.2263 249.054 57.3374 249.522 57.4076C250.002 57.4778 250.517 57.5129 251.066 57.5129C252.47 57.5129 253.593 57.1444 254.436 56.4074C255.278 55.6586 255.699 54.6701 255.699 53.4417C255.699 52.1197 255.231 51.0843 254.295 50.3356C253.371 49.5868 252.078 49.2125 250.417 49.2125C249.973 49.2125 249.282 49.23 248.346 49.2651C248.241 49.2768 248.165 49.2827 248.118 49.2827C248.118 50.5813 248.13 51.95 248.153 53.389C248.153 53.7283 248.153 53.9389 248.153 54.0208V57.0742ZM237.747 58.5132C237.852 58.5249 237.964 58.5366 238.08 58.5483C238.209 58.5483 238.385 58.5483 238.607 58.5483C239.601 58.5483 240.268 58.2558 240.607 57.6709C240.947 57.0859 241.116 55.5241 241.116 52.9854V52.1957V50.3531L241.151 46.7908V41.1226C241.151 39.8708 240.958 39.0168 240.572 38.5605C240.198 38.0926 239.514 37.8586 238.519 37.8586C238.461 37.8586 238.355 37.8644 238.203 37.8761C238.051 37.8878 237.934 37.8937 237.852 37.8937V35.7001C239.233 35.7586 240.409 35.8054 241.38 35.8405C242.362 35.8639 243.222 35.8756 243.959 35.8756C245.106 35.8756 246.621 35.8288 248.504 35.7352C250.388 35.6299 251.698 35.5773 252.435 35.5773C255.301 35.5773 257.559 36.1096 259.209 37.1742C260.87 38.2271 261.701 39.6368 261.701 41.4034C261.701 42.7488 261.215 43.9304 260.244 44.9482C259.273 45.966 257.846 46.7732 255.962 47.3699C258.372 47.6624 260.18 48.335 261.385 49.388C262.602 50.4292 263.21 51.8565 263.21 53.6698C263.21 55.8224 262.134 57.548 259.981 58.8466C257.828 60.1335 254.904 60.777 251.207 60.777C250.598 60.777 249.393 60.7243 247.592 60.619C245.802 60.5137 244.316 60.4611 243.134 60.4611C242.83 60.4611 242.052 60.4903 240.801 60.5488C239.56 60.5956 238.543 60.6366 237.747 60.6717V58.5132Z" fill="white"/>
<path d="M285.304 56.9338L286.163 58.6887C284.549 59.6363 283.215 60.3207 282.162 60.7419C281.11 61.1747 280.238 61.3912 279.548 61.3912C278.53 61.3912 277.758 61.163 277.231 60.7068C276.717 60.2622 276.442 59.5954 276.407 58.7062C275.014 59.6772 273.868 60.3675 272.967 60.777C272.066 61.1864 271.253 61.3912 270.528 61.3912C269.147 61.3912 267.966 60.8705 266.983 59.8293C266.012 58.7881 265.526 57.5363 265.526 56.074C265.526 53.7224 268.246 51.9383 273.686 50.7216C274.821 50.4643 275.71 50.2595 276.354 50.1074C276.366 49.7565 276.377 49.3821 276.389 48.9843C276.412 48.5749 276.424 48.335 276.424 48.2649C276.424 47.3991 276.225 46.7615 275.827 46.3521C275.43 45.9309 274.81 45.7203 273.967 45.7203C273.125 45.7203 272.458 45.8724 271.967 46.1766C271.487 46.4808 271.247 46.8902 271.247 47.405V47.7735C271.247 48.2882 271.002 48.6743 270.51 48.9317C270.019 49.1891 269.27 49.3178 268.264 49.3178C267.597 49.3178 267.094 49.1949 266.755 48.9492C266.416 48.6919 266.246 48.3116 266.246 47.8086C266.246 47.4225 266.398 47.0014 266.702 46.5451C267.018 46.0888 267.468 45.6209 268.053 45.1412C269.095 44.2989 270.317 43.632 271.721 43.1407C273.125 42.6376 274.5 42.3861 275.845 42.3861C278.138 42.3861 279.852 42.9125 280.987 43.9655C282.133 45.0184 282.706 46.6094 282.706 48.7387C282.706 49.23 282.66 50.2537 282.566 51.8097C282.472 53.3656 282.426 54.6759 282.426 55.7405C282.426 56.3372 282.525 56.7876 282.724 57.0918C282.935 57.3959 283.239 57.548 283.637 57.548C283.812 57.548 284.023 57.5012 284.268 57.4076C284.514 57.314 284.859 57.1561 285.304 56.9338ZM276.336 52.5116C276.079 52.5935 275.699 52.7105 275.196 52.8626C272.68 53.6113 271.423 54.5121 271.423 55.565C271.423 56.15 271.622 56.6531 272.019 57.0742C272.429 57.4837 272.926 57.6884 273.511 57.6884C273.839 57.6884 274.213 57.6007 274.634 57.4252C275.067 57.2497 275.629 56.9397 276.319 56.4951L276.336 52.5116Z" fill="white"/>
<path d="M295.78 42.3861L295.412 45.4044C296.71 44.4217 297.903 43.6964 298.991 43.2284C300.079 42.7605 301.115 42.5265 302.098 42.5265C304.04 42.5265 305.502 43.1114 306.485 44.2813C307.467 45.4395 307.959 47.1651 307.959 49.4582C307.959 49.9027 307.935 50.8913 307.889 52.4239C307.842 53.9447 307.818 55.2433 307.818 56.3196C307.818 57.2789 307.97 57.9282 308.275 58.2675C308.591 58.5951 309.181 58.7589 310.047 58.7589H310.363L310.328 60.6717C309.123 60.6015 308.041 60.5488 307.081 60.5137C306.134 60.4786 305.338 60.4611 304.695 60.4611C304.168 60.4611 303.472 60.4786 302.606 60.5137C301.752 60.5488 300.746 60.6015 299.588 60.6717V58.7589H299.764C300.583 58.7589 301.127 58.5249 301.396 58.0569C301.676 57.5773 301.817 56.1851 301.817 53.8804V51.9676C301.817 49.8033 301.6 48.3643 301.167 47.6507C300.746 46.937 300.015 46.5802 298.974 46.5802C298.588 46.5802 298.143 46.6562 297.64 46.8083C297.149 46.9604 296.552 47.2061 295.85 47.5454C295.792 48.2473 295.751 49.0428 295.727 49.932C295.716 50.8094 295.71 52.2425 295.71 54.2314V55.8283C295.71 57.1035 295.85 57.9107 296.131 58.25C296.424 58.5892 296.991 58.7589 297.833 58.7589V60.6717C296.886 60.6015 295.956 60.5488 295.043 60.5137C294.142 60.4786 293.224 60.4611 292.288 60.4611C291.434 60.4611 290.556 60.4786 289.656 60.5137C288.767 60.5488 287.848 60.6015 286.901 60.6717V58.7589H287.322C288.831 58.7589 289.597 57.1912 289.621 54.0559C289.621 53.8804 289.626 53.7517 289.638 53.6698L289.673 51.1428V48.9843C289.673 47.8729 289.527 47.1183 289.234 46.7206C288.954 46.3228 288.439 46.1239 287.69 46.1239C287.503 46.1239 287.351 46.1298 287.234 46.1415C287.117 46.1415 287.006 46.1415 286.901 46.1415V44.2462C288.316 44.0825 289.749 43.8485 291.2 43.5443C292.662 43.2284 294.189 42.8424 295.78 42.3861Z" fill="white"/>
<path d="M326.174 60.6717C326.174 60.6366 326.18 60.5898 326.192 60.5313C326.203 60.4728 326.209 60.426 326.209 60.3909C326.209 59.9229 325.864 59.2268 325.174 58.3026L325.121 58.2324L320.208 51.7219C322.489 49.5108 323.928 48.0718 324.525 47.405C325.121 46.7264 325.42 46.2585 325.42 46.0011C325.42 45.6618 325.303 45.422 325.069 45.2816C324.846 45.1412 324.449 45.071 323.875 45.071H323.577V43.0178C324.665 43.0997 325.595 43.1582 326.367 43.1933C327.139 43.2284 327.765 43.246 328.245 43.246C328.842 43.246 329.549 43.2284 330.368 43.1933C331.199 43.1582 332.158 43.0997 333.246 43.0178V45.1061C333.164 45.0944 333.077 45.0886 332.983 45.0886C332.901 45.0769 332.772 45.071 332.597 45.071C331.462 45.071 329.883 46.0128 327.859 47.8963C327.052 48.6451 326.402 49.2242 325.911 49.6336L331.842 56.8285C331.901 56.887 331.989 56.9865 332.106 57.1269C332.983 58.1681 333.855 58.6887 334.72 58.6887H335.001V60.6015C334.206 60.5547 333.422 60.5196 332.65 60.4962C331.877 60.4728 331.117 60.4611 330.368 60.4611C330.052 60.4611 329.543 60.4786 328.842 60.5137C328.14 60.5488 327.25 60.6015 326.174 60.6717ZM311.328 58.6536C312.077 58.6536 312.609 58.6068 312.925 58.5132C313.253 58.4079 313.487 58.2266 313.627 57.9692C314.025 57.2322 314.235 53.816 314.259 47.7208C314.259 46.7147 314.265 45.9426 314.276 45.4044V39.28C314.276 38.3324 314.142 37.7065 313.873 37.4023C313.604 37.0981 313.077 36.946 312.293 36.946C312.223 36.946 312.106 36.9519 311.942 36.9636C311.79 36.9753 311.667 36.9811 311.574 36.9811L311.504 34.9806C313.024 34.8519 314.545 34.6647 316.066 34.4191C317.587 34.1617 319.108 33.8458 320.629 33.4714C320.465 38.0224 320.354 41.6023 320.295 44.2111C320.237 46.8083 320.208 49.0487 320.208 50.9322L320.173 54.4946V55.6352C320.173 57.004 320.295 57.8639 320.541 58.2149C320.798 58.5541 321.284 58.7238 321.998 58.7238C322.044 58.7238 322.115 58.7179 322.208 58.7062C322.313 58.6945 322.401 58.6887 322.471 58.6887V60.6717C321.243 60.6015 320.149 60.5488 319.19 60.5137C318.242 60.4786 317.429 60.4611 316.751 60.4611C316.189 60.4611 315.452 60.4786 314.539 60.5137C313.627 60.5488 312.556 60.6015 311.328 60.6717V58.6536Z" fill="white"/>
<path d="M68.967 35.1952C62.795 27.9158 53.4846 26.852 47.4171 28.9587C47.2079 29.0212 47.0824 29.2507 47.1451 29.4593L47.8146 31.7954C47.8774 32.0248 48.1075 32.15 48.3377 32.0874C56.7903 29.6678 65.473 33.6309 68.988 41.4735C72.0217 48.2524 69.9922 55.5111 66.3727 59.4533L66.5191 58.3478C66.54 58.1183 66.3936 57.9098 66.1634 57.8889L63.6737 57.5343C63.5691 57.5134 63.4436 57.5552 63.3599 57.6177C63.2762 57.6803 63.2134 57.7846 63.1925 57.8889C63.1088 58.5146 63.0251 59.1195 62.9414 59.7244C62.7322 61.2262 62.523 62.6654 62.3556 64.1255C62.2928 64.6469 62.4393 65.1475 62.795 65.4813C63.1088 65.7941 63.5691 65.961 64.0712 65.961C64.1758 65.961 64.2804 65.961 64.3851 65.9401C65.4102 65.815 66.4773 65.669 67.6489 65.5021C68.2975 65.3978 68.9461 65.3144 69.6156 65.2101L70.5153 65.0641C70.7454 65.0224 70.8919 64.8138 70.871 64.5844L70.4944 62.1231C70.4525 61.8937 70.2642 61.7476 70.0341 61.7685L68.716 61.9354C71.9798 58.16 73.6745 53.9676 73.8419 49.1493C74.0093 43.9139 72.3774 39.2209 68.967 35.1952Z" fill="white"/>
<path d="M58.966 65.1059C58.9033 64.8974 58.6731 64.7722 58.4639 64.8348C52.5847 66.4409 48.0237 64.9599 45.241 63.4373C41.8516 61.5809 39.0899 58.5982 37.6672 55.24C36.2654 51.9236 35.9306 48.3151 36.7048 44.7693C37.3324 41.9326 38.6296 39.3462 40.408 37.3646L40.2825 38.491C40.2615 38.7204 40.408 38.9081 40.6381 38.9498L43.086 39.2836C43.3162 39.3044 43.5254 39.1584 43.5463 38.929L43.6091 38.5744C43.6509 38.345 43.6719 38.1364 43.7137 37.9278C43.7765 37.4689 43.8392 37.01 43.9229 36.5303C44.0903 35.3622 44.2786 34.1525 44.4251 32.9636C44.5088 32.2752 44.3414 31.6704 43.9648 31.2741C43.6509 30.9612 43.2325 30.8152 42.7722 30.8777C41.2658 31.0446 39.7803 31.2532 38.2112 31.4826C37.6044 31.5661 36.9767 31.6495 36.3491 31.7538C36.2445 31.7746 36.1399 31.8372 36.0771 31.9207C36.0143 32.0041 35.9725 32.1292 35.9934 32.2335L36.3491 34.7156C36.3909 34.9451 36.5792 35.0911 36.8094 35.0702L38.1275 34.9034C34.7799 38.783 33.0434 43.2675 33.0015 48.2317C32.9388 53.6965 34.8218 58.4731 38.5878 62.4778C42.8141 66.9415 48.5468 68.8604 53.5472 68.8604C55.7022 68.8604 57.7316 68.5058 59.4263 67.8384C59.6355 67.7549 59.7402 67.5255 59.6774 67.3169L58.966 65.1059Z" fill="white"/>
<path d="M66.0379 41.3693C66.6237 50.818 62.774 56.0951 53.631 56.5957C56.2672 53.7381 58.5059 50.7763 59.9286 47.2095C58.3594 48.169 56.7484 49.0659 55.242 50.1297C53.7356 51.1935 52.3338 52.4241 50.8902 53.5713C50.7856 45.2906 56.1835 40.6392 66.0379 41.3693Z" fill="white"/>
<path d="M48.5888 49.8582C47.0197 49.149 46.4966 48.9612 44.6973 48.1269C45.3459 51.0262 46.664 53.0703 48.547 54.8224C48.9027 55.1561 49.091 55.6984 49.4048 56.2407C46.4966 56.6996 42.6678 54.4678 41.3707 51.7354C40.1781 49.2324 39.9689 46.5626 40.0944 43.6841C43.6093 43.5799 45.9945 43.3087 48.9027 45.5405C49.4676 45.9577 49.6768 46.3957 49.3839 47.1049C49.0282 48.0226 48.8399 48.9613 48.5888 49.8582Z" fill="white"/>
</g>
<defs>
<linearGradient id="paint0_linear_0_1" x1="-16.8839" y1="361.719" x2="650.965" y2="-138.87" gradientUnits="userSpaceOnUse">
<stop stop-color="#34B53A"/>
<stop offset="1" stop-color="#CEDB56"/>
</linearGradient>
</defs>
</svg>
