<svg width="188" height="30" viewBox="0 0 188 30" fill="none" xmlns="http://www.w3.org/2000/svg">
<path d="M52.748 8.24023V8.89551C52.748 9.56152 52.7731 10.224 52.8232 10.8828C52.8734 11.5417 52.945 12.1934 53.0381 12.8379L51.5879 13.1172C51.4303 11.9642 50.9899 11.0905 50.2666 10.4961C49.5433 9.90169 48.5622 9.60449 47.3232 9.60449C45.8623 9.60449 44.7236 10.0771 43.9072 11.0225C43.098 11.9606 42.6934 13.2855 42.6934 14.9971C42.6934 16.8877 43.1374 18.3594 44.0254 19.4121C44.9134 20.4577 46.1488 20.9805 47.7314 20.9805C48.7484 20.9805 49.6328 20.7227 50.3848 20.207C51.1439 19.6914 51.7705 18.9215 52.2646 17.8975L53.5859 18.4883C53.2565 19.1686 52.9629 19.8311 52.7051 20.4756C52.4473 21.113 52.2217 21.7432 52.0283 22.3662C50.9541 22.7314 49.9945 23 49.1494 23.1719C48.3115 23.3509 47.5381 23.4404 46.8291 23.4404C44.1077 23.4404 41.9163 22.71 40.2549 21.249C38.6006 19.7809 37.7734 17.8509 37.7734 15.459C37.7734 13.0527 38.6794 11.0869 40.4912 9.56152C42.3031 8.03613 44.6449 7.27344 47.5166 7.27344C48.3903 7.27344 49.2604 7.35221 50.127 7.50977C50.9935 7.66732 51.8672 7.91081 52.748 8.24023Z" fill="url(#paint0_linear_899_19197)"/>
<path d="M66.5195 20.7119L67.0459 21.7861C66.0576 22.3662 65.2412 22.7852 64.5967 23.043C63.9521 23.3079 63.4186 23.4404 62.9961 23.4404C62.373 23.4404 61.9004 23.3008 61.5781 23.0215C61.263 22.7493 61.0947 22.3411 61.0732 21.7969C60.221 22.3913 59.5192 22.8138 58.9678 23.0645C58.4163 23.3151 57.9186 23.4404 57.4746 23.4404C56.6296 23.4404 55.9062 23.1217 55.3047 22.4844C54.7103 21.847 54.4131 21.0807 54.4131 20.1855C54.4131 18.7461 56.0781 17.654 59.4082 16.9092C60.1029 16.7516 60.6471 16.6263 61.041 16.5332C61.0482 16.3184 61.0553 16.0892 61.0625 15.8457C61.0768 15.5951 61.084 15.4482 61.084 15.4053C61.084 14.8753 60.9622 14.485 60.7188 14.2344C60.4753 13.9766 60.0957 13.8477 59.5801 13.8477C59.0645 13.8477 58.6562 13.9408 58.3555 14.127C58.0618 14.3132 57.915 14.5638 57.915 14.8789V15.1045C57.915 15.4196 57.7646 15.6559 57.4639 15.8135C57.1631 15.971 56.7048 16.0498 56.0889 16.0498C55.6807 16.0498 55.3727 15.9746 55.165 15.8242C54.9574 15.6667 54.8535 15.4339 54.8535 15.126C54.8535 14.8896 54.9466 14.6318 55.1328 14.3525C55.3262 14.0732 55.6019 13.7868 55.96 13.4932C56.5973 12.9775 57.3457 12.5693 58.2051 12.2686C59.0645 11.9606 59.9059 11.8066 60.7295 11.8066C62.1331 11.8066 63.1823 12.1289 63.877 12.7734C64.5788 13.418 64.9297 14.3919 64.9297 15.6953C64.9297 15.9961 64.901 16.6227 64.8438 17.5752C64.7865 18.5277 64.7578 19.3298 64.7578 19.9814C64.7578 20.3467 64.8187 20.6224 64.9404 20.8086C65.0693 20.9948 65.2555 21.0879 65.499 21.0879C65.6064 21.0879 65.7354 21.0592 65.8857 21.002C66.0361 20.9447 66.2474 20.848 66.5195 20.7119ZM61.0303 18.0049C60.8727 18.055 60.64 18.1266 60.332 18.2197C58.7923 18.6781 58.0225 19.2295 58.0225 19.874C58.0225 20.2321 58.1442 20.54 58.3877 20.7979C58.6383 21.0485 58.9427 21.1738 59.3008 21.1738C59.5013 21.1738 59.7305 21.1201 59.9883 21.0127C60.2533 20.9053 60.597 20.7155 61.0195 20.4434L61.0303 18.0049Z" fill="url(#paint1_linear_899_19197)"/>
<path d="M73.0186 11.7852C72.9756 12.2865 72.9362 12.7878 72.9004 13.2891C72.8717 13.7832 72.8467 14.2845 72.8252 14.793C73.4626 13.6973 73.9925 12.9596 74.415 12.5801C74.8447 12.1934 75.3102 12 75.8115 12C76.3057 12 76.721 12.1934 77.0576 12.5801C77.4014 12.9668 77.5732 13.4395 77.5732 13.998C77.5732 14.4993 77.4443 14.9076 77.1865 15.2227C76.9287 15.5378 76.6029 15.6953 76.209 15.6953C75.987 15.6953 75.6969 15.5879 75.3389 15.373C74.988 15.151 74.7122 15.04 74.5117 15.04C74.304 15.04 74.0677 15.1224 73.8027 15.2871C73.5378 15.4518 73.2477 15.6989 72.9326 16.0283C72.9255 16.3219 72.9183 16.6263 72.9111 16.9414C72.9111 17.2565 72.9111 17.6683 72.9111 18.1768V19.4336C72.9111 20.4863 73.0293 21.1488 73.2656 21.4209C73.5091 21.693 73.9854 21.8291 74.6943 21.8291C74.8232 21.8291 74.9271 21.8291 75.0059 21.8291C75.0846 21.8219 75.1562 21.8184 75.2207 21.8184V23C74.3184 22.9427 73.5091 22.8997 72.793 22.8711C72.084 22.8424 71.4395 22.8281 70.8594 22.8281C70.5228 22.8281 70.043 22.8424 69.4199 22.8711C68.7969 22.8997 68.113 22.9427 67.3682 23V21.7861C67.404 21.7861 67.4613 21.7897 67.54 21.7969C67.6188 21.804 67.6689 21.8076 67.6904 21.8076C68.6572 21.8076 69.1406 20.7048 69.1406 18.499C69.1406 18.1338 69.1442 17.8509 69.1514 17.6504L69.1729 16.4473V15.6309C69.1729 14.9505 69.0869 14.5101 68.915 14.3096C68.7503 14.1019 68.446 13.998 68.002 13.998C67.916 13.998 67.8193 14.0016 67.7119 14.0088C67.6117 14.0088 67.5042 14.0124 67.3896 14.0195L67.3252 12.8809C68.2419 12.7806 69.1729 12.641 70.1182 12.4619C71.0706 12.2757 72.0374 12.0501 73.0186 11.7852Z" fill="url(#paint2_linear_899_19197)"/>
<path d="M83.4814 20.9805C83.7607 21.1452 84.0221 21.2669 84.2656 21.3457C84.5091 21.4245 84.7454 21.4639 84.9746 21.4639C85.7051 21.4639 86.2816 21.1738 86.7041 20.5938C87.1338 20.0065 87.3486 19.2008 87.3486 18.1768C87.3486 16.9163 87.1195 15.9281 86.6611 15.2119C86.21 14.4958 85.5869 14.1377 84.792 14.1377C84.5771 14.1377 84.3516 14.1807 84.1152 14.2666C83.8861 14.3454 83.6354 14.4707 83.3633 14.6426C83.3633 14.793 83.3597 15.0186 83.3525 15.3193C83.3311 16.3434 83.3203 17.0345 83.3203 17.3926C83.3203 18.4238 83.3311 19.2331 83.3525 19.8203C83.3812 20.4004 83.4242 20.7871 83.4814 20.9805ZM83.5244 6.37109C83.4456 7.73893 83.3883 8.96354 83.3525 10.0449C83.3167 11.1263 83.2988 12.1361 83.2988 13.0742C83.8717 12.6302 84.4089 12.3115 84.9102 12.1182C85.4186 11.9248 85.9521 11.8281 86.5107 11.8281C87.943 11.8281 89.1426 12.3438 90.1094 13.375C91.0833 14.4062 91.5703 15.6846 91.5703 17.21C91.5703 19.0505 90.89 20.5436 89.5293 21.6895C88.1758 22.8281 86.3926 23.3975 84.1797 23.3975C83.2917 23.3975 82.4574 23.333 81.6768 23.2041C80.8962 23.0752 80.1621 22.8818 79.4746 22.624C79.5176 20.1247 79.5534 16.6084 79.582 12.0752V11.6455V9.60449C79.582 9.23926 79.4925 8.96354 79.3135 8.77734C79.1416 8.59115 78.8802 8.49805 78.5293 8.49805H77.9277L77.8848 7.31641C78.7799 7.25195 79.693 7.14095 80.624 6.9834C81.5622 6.82585 82.529 6.62174 83.5244 6.37109Z" fill="url(#paint3_linear_899_19197)"/>
<path d="M99.2939 13.6973C98.6064 13.6973 98.0837 13.9801 97.7256 14.5459C97.3675 15.1045 97.1885 15.9281 97.1885 17.0166C97.1885 18.4704 97.3818 19.5732 97.7686 20.3252C98.1553 21.07 98.7318 21.4424 99.498 21.4424C100.214 21.4424 100.751 21.1559 101.109 20.583C101.467 20.0029 101.646 19.1364 101.646 17.9834C101.646 16.5798 101.446 15.5163 101.045 14.793C100.651 14.0625 100.067 13.6973 99.2939 13.6973ZM99.4121 11.8066C101.367 11.8066 102.943 12.3473 104.139 13.4287C105.342 14.5029 105.943 15.8958 105.943 17.6074C105.943 19.2975 105.331 20.6868 104.106 21.7754C102.889 22.8568 101.317 23.3975 99.3906 23.3975C97.4714 23.3975 95.9102 22.8783 94.707 21.8398C93.5111 20.7943 92.9131 19.4443 92.9131 17.79C92.9131 16.0426 93.5218 14.6104 94.7393 13.4932C95.9567 12.3688 97.5143 11.8066 99.4121 11.8066Z" fill="url(#paint4_linear_899_19197)"/>
<path d="M112.464 11.8066L112.238 13.6543C113.033 13.0527 113.764 12.6087 114.43 12.3223C115.096 12.0358 115.729 11.8926 116.331 11.8926C117.52 11.8926 118.415 12.2507 119.017 12.9668C119.618 13.6758 119.919 14.7321 119.919 16.1357C119.919 16.4079 119.905 17.013 119.876 17.9512C119.847 18.8822 119.833 19.6771 119.833 20.3359C119.833 20.9232 119.926 21.3206 120.112 21.5283C120.306 21.7288 120.667 21.8291 121.197 21.8291H121.391L121.369 23C120.632 22.957 119.969 22.9248 119.382 22.9033C118.802 22.8818 118.315 22.8711 117.921 22.8711C117.599 22.8711 117.173 22.8818 116.643 22.9033C116.12 22.9248 115.504 22.957 114.795 23V21.8291H114.902C115.404 21.8291 115.737 21.6859 115.901 21.3994C116.073 21.1058 116.159 20.2536 116.159 18.8428V17.6719C116.159 16.347 116.027 15.4661 115.762 15.0293C115.504 14.5924 115.056 14.374 114.419 14.374C114.183 14.374 113.91 14.4206 113.603 14.5137C113.302 14.6068 112.937 14.7572 112.507 14.9648C112.471 15.3945 112.446 15.8815 112.432 16.4258C112.424 16.9629 112.421 17.8402 112.421 19.0576V20.0352C112.421 20.8158 112.507 21.3099 112.679 21.5176C112.858 21.7253 113.205 21.8291 113.721 21.8291V23C113.141 22.957 112.571 22.9248 112.013 22.9033C111.461 22.8818 110.899 22.8711 110.326 22.8711C109.803 22.8711 109.266 22.8818 108.715 22.9033C108.171 22.9248 107.608 22.957 107.028 23V21.8291H107.286C108.21 21.8291 108.679 20.8695 108.693 18.9502C108.693 18.8428 108.697 18.764 108.704 18.7139L108.726 17.167V15.8457C108.726 15.1654 108.636 14.7035 108.457 14.46C108.285 14.2165 107.97 14.0947 107.512 14.0947C107.397 14.0947 107.304 14.0983 107.232 14.1055C107.161 14.1055 107.093 14.1055 107.028 14.1055V12.9453C107.895 12.8451 108.772 12.7018 109.66 12.5156C110.555 12.3223 111.49 12.0859 112.464 11.8066Z" fill="url(#paint5_linear_899_19197)"/>
<path d="M133.682 14.2021H134.369C134.763 14.2021 135.401 14.1878 136.281 14.1592H136.41C136.826 13.8799 137.144 13.5505 137.366 13.1709C137.596 12.7842 137.71 12.3796 137.71 11.957C137.71 11.2409 137.477 10.6859 137.012 10.292C136.546 9.89095 135.891 9.69043 135.046 9.69043C134.932 9.69043 134.677 9.71191 134.283 9.75488C134.04 9.78353 133.847 9.80501 133.703 9.81934V11.6455V12.376C133.703 12.5908 133.7 12.9023 133.693 13.3105C133.685 13.7188 133.682 14.016 133.682 14.2021ZM133.703 20.7979C133.975 20.891 134.255 20.959 134.541 21.002C134.835 21.0449 135.15 21.0664 135.487 21.0664C136.346 21.0664 137.033 20.8408 137.549 20.3896C138.065 19.9313 138.322 19.3262 138.322 18.5742C138.322 17.765 138.036 17.1312 137.463 16.6729C136.897 16.2145 136.106 15.9854 135.089 15.9854C134.817 15.9854 134.394 15.9961 133.821 16.0176C133.757 16.0247 133.71 16.0283 133.682 16.0283C133.682 16.8232 133.689 17.6611 133.703 18.542C133.703 18.7497 133.703 18.8786 133.703 18.9287V20.7979ZM127.333 21.6787C127.398 21.6859 127.466 21.693 127.537 21.7002C127.616 21.7002 127.724 21.7002 127.86 21.7002C128.468 21.7002 128.877 21.5212 129.084 21.1631C129.292 20.805 129.396 19.849 129.396 18.2949V17.8115V16.6836L129.417 14.5029V11.0332C129.417 10.2669 129.299 9.74414 129.063 9.46484C128.834 9.17839 128.415 9.03516 127.806 9.03516C127.77 9.03516 127.706 9.03874 127.613 9.0459C127.519 9.05306 127.448 9.05664 127.398 9.05664V7.71387C128.243 7.74967 128.962 7.77832 129.557 7.7998C130.158 7.81413 130.685 7.82129 131.136 7.82129C131.838 7.82129 132.765 7.79264 133.918 7.73535C135.071 7.6709 135.873 7.63867 136.324 7.63867C138.079 7.63867 139.461 7.96452 140.471 8.61621C141.488 9.26074 141.996 10.1237 141.996 11.2051C141.996 12.0286 141.699 12.752 141.105 13.375C140.51 13.998 139.637 14.4922 138.484 14.8574C139.959 15.0365 141.065 15.4482 141.803 16.0928C142.548 16.7301 142.92 17.6038 142.92 18.7139C142.92 20.0316 142.261 21.0879 140.944 21.8828C139.626 22.6706 137.835 23.0645 135.572 23.0645C135.2 23.0645 134.462 23.0322 133.36 22.9678C132.264 22.9033 131.354 22.8711 130.631 22.8711C130.445 22.8711 129.969 22.889 129.202 22.9248C128.443 22.9535 127.82 22.9785 127.333 23V21.6787Z" fill="url(#paint6_linear_899_19197)"/>
<path d="M156.445 20.7119L156.971 21.7861C155.983 22.3662 155.166 22.7852 154.522 23.043C153.877 23.3079 153.344 23.4404 152.921 23.4404C152.298 23.4404 151.825 23.3008 151.503 23.0215C151.188 22.7493 151.02 22.3411 150.998 21.7969C150.146 22.3913 149.444 22.8138 148.893 23.0645C148.341 23.3151 147.844 23.4404 147.4 23.4404C146.555 23.4404 145.831 23.1217 145.23 22.4844C144.635 21.847 144.338 21.0807 144.338 20.1855C144.338 18.7461 146.003 17.654 149.333 16.9092C150.028 16.7516 150.572 16.6263 150.966 16.5332C150.973 16.3184 150.98 16.0892 150.988 15.8457C151.002 15.5951 151.009 15.4482 151.009 15.4053C151.009 14.8753 150.887 14.485 150.644 14.2344C150.4 13.9766 150.021 13.8477 149.505 13.8477C148.989 13.8477 148.581 13.9408 148.28 14.127C147.987 14.3132 147.84 14.5638 147.84 14.8789V15.1045C147.84 15.4196 147.69 15.6559 147.389 15.8135C147.088 15.971 146.63 16.0498 146.014 16.0498C145.606 16.0498 145.298 15.9746 145.09 15.8242C144.882 15.6667 144.779 15.4339 144.779 15.126C144.779 14.8896 144.872 14.6318 145.058 14.3525C145.251 14.0732 145.527 13.7868 145.885 13.4932C146.522 12.9775 147.271 12.5693 148.13 12.2686C148.989 11.9606 149.831 11.8066 150.654 11.8066C152.058 11.8066 153.107 12.1289 153.802 12.7734C154.504 13.418 154.855 14.3919 154.855 15.6953C154.855 15.9961 154.826 16.6227 154.769 17.5752C154.711 18.5277 154.683 19.3298 154.683 19.9814C154.683 20.3467 154.744 20.6224 154.865 20.8086C154.994 20.9948 155.181 21.0879 155.424 21.0879C155.531 21.0879 155.66 21.0592 155.811 21.002C155.961 20.9447 156.172 20.848 156.445 20.7119ZM150.955 18.0049C150.798 18.055 150.565 18.1266 150.257 18.2197C148.717 18.6781 147.947 19.2295 147.947 19.874C147.947 20.2321 148.069 20.54 148.313 20.7979C148.563 21.0485 148.868 21.1738 149.226 21.1738C149.426 21.1738 149.655 21.1201 149.913 21.0127C150.178 20.9053 150.522 20.7155 150.945 20.4434L150.955 18.0049Z" fill="url(#paint7_linear_899_19197)"/>
<path d="M162.858 11.8066L162.632 13.6543C163.427 13.0527 164.157 12.6087 164.823 12.3223C165.489 12.0358 166.123 11.8926 166.725 11.8926C167.914 11.8926 168.809 12.2507 169.41 12.9668C170.012 13.6758 170.313 14.7321 170.313 16.1357C170.313 16.4079 170.298 17.013 170.27 17.9512C170.241 18.8822 170.227 19.6771 170.227 20.3359C170.227 20.9232 170.32 21.3206 170.506 21.5283C170.699 21.7288 171.061 21.8291 171.591 21.8291H171.784L171.763 23C171.025 22.957 170.363 22.9248 169.776 22.9033C169.196 22.8818 168.709 22.8711 168.315 22.8711C167.992 22.8711 167.566 22.8818 167.036 22.9033C166.514 22.9248 165.898 22.957 165.189 23V21.8291H165.296C165.797 21.8291 166.13 21.6859 166.295 21.3994C166.467 21.1058 166.553 20.2536 166.553 18.8428V17.6719C166.553 16.347 166.42 15.4661 166.155 15.0293C165.898 14.5924 165.45 14.374 164.813 14.374C164.576 14.374 164.304 14.4206 163.996 14.5137C163.696 14.6068 163.33 14.7572 162.901 14.9648C162.865 15.3945 162.84 15.8815 162.825 16.4258C162.818 16.9629 162.815 17.8402 162.815 19.0576V20.0352C162.815 20.8158 162.901 21.3099 163.072 21.5176C163.252 21.7253 163.599 21.8291 164.114 21.8291V23C163.534 22.957 162.965 22.9248 162.406 22.9033C161.855 22.8818 161.293 22.8711 160.72 22.8711C160.197 22.8711 159.66 22.8818 159.109 22.9033C158.564 22.9248 158.002 22.957 157.422 23V21.8291H157.68C158.604 21.8291 159.073 20.8695 159.087 18.9502C159.087 18.8428 159.091 18.764 159.098 18.7139L159.119 17.167V15.8457C159.119 15.1654 159.03 14.7035 158.851 14.46C158.679 14.2165 158.364 14.0947 157.905 14.0947C157.791 14.0947 157.698 14.0983 157.626 14.1055C157.555 14.1055 157.487 14.1055 157.422 14.1055V12.9453C158.289 12.8451 159.166 12.7018 160.054 12.5156C160.949 12.3223 161.884 12.0859 162.858 11.8066Z" fill="url(#paint8_linear_899_19197)"/>
<path d="M181.463 23C181.463 22.9785 181.467 22.9499 181.474 22.9141C181.481 22.8783 181.485 22.8496 181.485 22.8281C181.485 22.5417 181.273 22.1156 180.851 21.5498L180.819 21.5068L177.811 17.5215C179.207 16.168 180.088 15.2871 180.453 14.8789C180.819 14.4635 181.001 14.1771 181.001 14.0195C181.001 13.8118 180.93 13.665 180.786 13.5791C180.65 13.4932 180.407 13.4502 180.056 13.4502H179.873V12.1934C180.539 12.2435 181.109 12.2793 181.581 12.3008C182.054 12.3223 182.437 12.333 182.731 12.333C183.096 12.333 183.529 12.3223 184.03 12.3008C184.539 12.2793 185.126 12.2435 185.792 12.1934V13.4717C185.742 13.4645 185.688 13.4609 185.631 13.4609C185.581 13.4538 185.502 13.4502 185.395 13.4502C184.7 13.4502 183.733 14.0267 182.494 15.1797C182 15.638 181.603 15.9925 181.302 16.2432L184.933 20.6475C184.969 20.6833 185.022 20.7441 185.094 20.8301C185.631 21.4674 186.165 21.7861 186.695 21.7861H186.866V22.957C186.379 22.9284 185.9 22.9069 185.427 22.8926C184.954 22.8783 184.489 22.8711 184.03 22.8711C183.837 22.8711 183.526 22.8818 183.096 22.9033C182.666 22.9248 182.122 22.957 181.463 23ZM172.375 21.7646C172.834 21.7646 173.159 21.736 173.353 21.6787C173.553 21.6143 173.696 21.5033 173.782 21.3457C174.026 20.8945 174.155 18.8034 174.169 15.0723C174.169 14.4564 174.173 13.9837 174.18 13.6543V9.90527C174.18 9.3252 174.098 8.94206 173.933 8.75586C173.768 8.56966 173.446 8.47656 172.966 8.47656C172.923 8.47656 172.851 8.48014 172.751 8.4873C172.658 8.49447 172.583 8.49805 172.526 8.49805L172.483 7.27344C173.414 7.19466 174.345 7.08008 175.276 6.92969C176.207 6.77214 177.138 6.57878 178.069 6.34961C177.968 9.13542 177.9 11.3268 177.864 12.9238C177.829 14.5137 177.811 15.8851 177.811 17.0381L177.789 19.2188V19.917C177.789 20.7549 177.864 21.2812 178.015 21.4961C178.172 21.7038 178.47 21.8076 178.906 21.8076C178.935 21.8076 178.978 21.804 179.035 21.7969C179.1 21.7897 179.154 21.7861 179.196 21.7861V23C178.445 22.957 177.775 22.9248 177.188 22.9033C176.608 22.8818 176.11 22.8711 175.695 22.8711C175.351 22.8711 174.9 22.8818 174.341 22.9033C173.782 22.9248 173.127 22.957 172.375 23V21.7646Z" fill="url(#paint9_linear_899_19197)"/>
<path d="M23.7799 6.75758C19.6993 1.94479 13.5438 1.24149 9.53234 2.6343C9.39401 2.67567 9.31102 2.82736 9.35252 2.96526L9.79516 4.50977C9.83666 4.66146 9.98882 4.7442 10.141 4.70283C15.7294 3.10317 21.4699 5.72331 23.7938 10.9084C25.7995 15.3903 24.4577 20.1893 22.0647 22.7956L22.1615 22.0647C22.1754 21.913 22.0785 21.7751 21.9264 21.7614L20.2803 21.5269C20.2111 21.5131 20.1281 21.5407 20.0728 21.5821C20.0175 21.6234 19.976 21.6924 19.9621 21.7614C19.9068 22.1751 19.8515 22.575 19.7961 22.9749C19.6578 23.9678 19.5195 24.9193 19.4088 25.8846C19.3673 26.2294 19.4642 26.5604 19.6993 26.781C19.9068 26.9879 20.2111 27.0982 20.5431 27.0982C20.6123 27.0982 20.6814 27.0982 20.7506 27.0844C21.4284 27.0016 22.1339 26.9051 22.9085 26.7948C23.3373 26.7258 23.7661 26.6707 24.2088 26.6017L24.8036 26.5052C24.9557 26.4776 25.0525 26.3397 25.0387 26.188L24.7897 24.5608C24.7621 24.4091 24.6376 24.3125 24.4854 24.3263L23.6139 24.4367C25.7718 21.9406 26.8923 19.1688 27.0029 15.9832C27.1136 12.5219 26.0347 9.41909 23.7799 6.75758Z" fill="#B4D76E"/>
<path d="M17.1673 26.5327C17.1258 26.3948 16.9736 26.3121 16.8353 26.3535C12.9483 27.4153 9.93283 26.4362 8.09309 25.4295C5.8522 24.2022 4.0263 22.2302 3.08568 20.0099C2.15889 17.8173 1.93757 15.4316 2.44938 13.0873C2.86436 11.2118 3.72198 9.50179 4.89775 8.19172L4.81476 8.93639C4.80092 9.08809 4.89775 9.2122 5.04991 9.23978L6.66833 9.46042C6.82049 9.47421 6.95881 9.37768 6.97264 9.22599L7.01414 8.99155C7.04181 8.83986 7.05564 8.70196 7.08331 8.56406C7.1248 8.26067 7.1663 7.95729 7.22163 7.64011C7.33229 6.86786 7.45679 6.06802 7.55361 5.28198C7.60894 4.8269 7.49828 4.42699 7.2493 4.16497C7.04181 3.95812 6.76516 3.86159 6.46084 3.90296C5.46489 4.01328 4.48277 4.15118 3.44533 4.30288C3.04418 4.35804 2.6292 4.4132 2.21422 4.48215C2.14506 4.49594 2.0759 4.53731 2.0344 4.59247C1.9929 4.64763 1.96524 4.73037 1.97907 4.79932L2.21422 6.44036C2.24189 6.59205 2.36638 6.68859 2.51854 6.6748L3.39 6.56447C1.17678 9.12946 0.0286694 12.0944 0.00100415 15.3764C-0.0404937 18.9895 1.20444 22.1474 3.69431 24.7952C6.4885 27.7463 10.2786 29.015 13.5846 29.015C15.0094 29.015 16.3512 28.7805 17.4716 28.3392C17.6099 28.2841 17.6791 28.1324 17.6376 27.9945L17.1673 26.5327Z" fill="#B4D76E"/>
<path d="M21.842 10.8395C22.2293 17.0865 19.6841 20.5754 13.6392 20.9064C15.3821 19.0171 16.8622 17.0589 17.8029 14.7008C16.7654 15.3351 15.7003 15.9281 14.7043 16.6314C13.7084 17.3347 12.7816 18.1483 11.8272 18.9068C11.758 13.4321 15.3268 10.3569 21.842 10.8395Z" fill="#B4D76E"/>
<path d="M10.3071 16.4521C9.26961 15.9832 8.92379 15.8591 7.73419 15.3075C8.163 17.2243 9.03445 18.5758 10.2794 19.7342C10.5145 19.9548 10.639 20.3134 10.8465 20.6719C8.92379 20.9753 6.39242 19.4997 5.5348 17.6932C4.74634 16.0384 4.60801 14.2732 4.69101 12.3702C7.01489 12.3012 8.59181 12.122 10.5145 13.5975C10.888 13.8733 11.0264 14.1629 10.8327 14.6318C10.5975 15.2386 10.473 15.8591 10.3071 16.4521Z" fill="#B4D76E"/>
<defs>
<linearGradient id="paint0_linear_899_19197" x1="43.2268" y1="-32.1053" x2="155.415" y2="51.6257" gradientUnits="userSpaceOnUse">
<stop stop-color="#CEDB56"/>
<stop offset="1" stop-color="#39C2D7"/>
</linearGradient>
<linearGradient id="paint1_linear_899_19197" x1="43.2268" y1="-32.1053" x2="155.415" y2="51.6257" gradientUnits="userSpaceOnUse">
<stop stop-color="#CEDB56"/>
<stop offset="1" stop-color="#39C2D7"/>
</linearGradient>
<linearGradient id="paint2_linear_899_19197" x1="43.2268" y1="-32.1053" x2="155.415" y2="51.6257" gradientUnits="userSpaceOnUse">
<stop stop-color="#CEDB56"/>
<stop offset="1" stop-color="#39C2D7"/>
</linearGradient>
<linearGradient id="paint3_linear_899_19197" x1="43.2268" y1="-32.1053" x2="155.415" y2="51.6257" gradientUnits="userSpaceOnUse">
<stop stop-color="#CEDB56"/>
<stop offset="1" stop-color="#39C2D7"/>
</linearGradient>
<linearGradient id="paint4_linear_899_19197" x1="43.2268" y1="-32.1053" x2="155.415" y2="51.6257" gradientUnits="userSpaceOnUse">
<stop stop-color="#CEDB56"/>
<stop offset="1" stop-color="#39C2D7"/>
</linearGradient>
<linearGradient id="paint5_linear_899_19197" x1="43.2268" y1="-32.1053" x2="155.415" y2="51.6257" gradientUnits="userSpaceOnUse">
<stop stop-color="#CEDB56"/>
<stop offset="1" stop-color="#39C2D7"/>
</linearGradient>
<linearGradient id="paint6_linear_899_19197" x1="43.2268" y1="-32.1053" x2="155.415" y2="51.6257" gradientUnits="userSpaceOnUse">
<stop stop-color="#CEDB56"/>
<stop offset="1" stop-color="#39C2D7"/>
</linearGradient>
<linearGradient id="paint7_linear_899_19197" x1="43.2268" y1="-32.1053" x2="155.415" y2="51.6257" gradientUnits="userSpaceOnUse">
<stop stop-color="#CEDB56"/>
<stop offset="1" stop-color="#39C2D7"/>
</linearGradient>
<linearGradient id="paint8_linear_899_19197" x1="43.2268" y1="-32.1053" x2="155.415" y2="51.6257" gradientUnits="userSpaceOnUse">
<stop stop-color="#CEDB56"/>
<stop offset="1" stop-color="#39C2D7"/>
</linearGradient>
<linearGradient id="paint9_linear_899_19197" x1="43.2268" y1="-32.1053" x2="155.415" y2="51.6257" gradientUnits="userSpaceOnUse">
<stop stop-color="#CEDB56"/>
<stop offset="1" stop-color="#39C2D7"/>
</linearGradient>
</defs>
</svg>
