<svg width="522" height="273" viewBox="0 0 522 273" fill="none" xmlns="http://www.w3.org/2000/svg">
<path opacity="0.5" d="M261 273C359.307 273 439 246.809 439 214.5C439 182.191 359.307 156 261 156C162.693 156 83 182.191 83 214.5C83 246.809 162.693 273 261 273Z" fill="url(#paint0_linear_1560_69908)"/>
<path fill-rule="evenodd" clip-rule="evenodd" d="M387.264 191.163C394.968 193.371 407.766 172.413 417.932 139.37C428.097 106.327 428.778 84.7347 421.074 82.5272C413.369 80.3197 390.136 99.468 381.239 130.47C372.343 161.472 379.56 188.956 387.264 191.163Z" fill="#DCE4C4"/>
<path opacity="0.8" d="M414.202 97.9668C402.379 117.314 394.774 132.847 391.387 144.565C388 156.284 386.626 171.817 387.266 191.164" stroke="white" stroke-width="2"/>
<path fill-rule="evenodd" clip-rule="evenodd" d="M387.264 191.162C382.712 188.094 391.058 176.507 406.646 158.803C422.234 141.1 430.808 138.031 435.36 141.1C439.913 144.168 437.391 161.581 424.23 176.813C411.068 192.045 391.817 194.231 387.264 191.162Z" fill="#DCE4C4"/>
<path opacity="0.8" d="M426.221 156.133C421.046 164.096 415.331 171.302 409.077 177.752C402.823 184.201 396.136 188.671 389.016 191.162" stroke="white" stroke-width="2"/>
<path fill-rule="evenodd" clip-rule="evenodd" d="M155.388 212.512C151.909 213.52 146.129 203.956 141.538 188.877C136.947 173.797 136.64 163.944 140.119 162.936C143.598 161.929 154.091 170.667 158.109 184.815C162.126 198.963 158.867 211.505 155.388 212.512Z" fill="#DCE4C4"/>
<path opacity="0.8" d="M143.224 169.982C148.563 178.812 151.998 185.9 153.527 191.248C155.057 196.595 155.677 203.684 155.388 212.513" stroke="white"/>
<path fill-rule="evenodd" clip-rule="evenodd" d="M155.388 212.512C157.444 211.112 153.674 205.824 146.635 197.745C139.595 189.666 135.723 188.266 133.667 189.666C131.611 191.066 132.75 199.013 138.694 205.964C144.637 212.915 153.332 213.912 155.388 212.512Z" fill="#DCE4C4"/>
<path opacity="0.8" d="M137.795 196.527C140.132 200.161 142.713 203.45 145.538 206.393C148.362 209.336 151.382 211.376 154.598 212.513" stroke="white"/>
<path d="M247.312 55.7526H280.399C284.228 55.7526 287.461 52.0386 287.461 47.4506C287.461 42.8739 284.228 39.1699 280.189 39.1699H247.312C243.279 39.1699 240.051 42.8739 240.051 47.4506C240.051 52.0386 243.284 55.7526 247.312 55.7526ZM315.908 50.6471H306.429C306.429 50.6471 299.796 52.4778 299.796 53.3985C299.796 60.3721 294.9 67.2353 289.062 67.2353H238.754C232.623 67.2353 227.716 60.3721 227.716 53.3985C227.722 52.4778 221.763 50.6471 221.763 50.6471H211.411C198.087 50.6471 194.812 58.4417 194.812 69.6884V181.059C194.812 193.132 199.5 199.891 212.416 199.891H314.903C327.814 199.891 334.091 194.597 334.091 181.059V69.6884C334.091 58.4417 328.211 50.6471 315.908 50.6471Z" fill="#E7EED3"/>
<path d="M285.084 160.605H227.863C225.242 160.605 222.621 157.289 222.621 154.569C222.621 151.869 224.839 149.547 227.465 149.547H284.477C287.093 149.547 289.311 151.66 289.52 154.569C289.52 157.289 287.7 160.605 285.084 160.605Z" fill="white"/>
<path d="M299.37 131.123H228.158C225.532 131.123 223.863 128.204 223.863 125.494C223.863 122.779 226.081 120.064 228.703 120.064H299.715C302.341 120.064 304.559 122.581 304.757 125.494C304.757 128.204 301.995 131.123 299.37 131.123Z" fill="white"/>
<path d="M299.37 100.835H228.158C225.532 100.835 223.863 97.9258 223.863 95.2056C223.863 92.4962 226.081 89.7812 228.703 89.7812H299.715C302.341 89.7812 304.559 92.2975 304.757 95.2056C304.757 97.9258 301.995 100.835 299.37 100.835Z" fill="white"/>
<defs>
<linearGradient id="paint0_linear_1560_69908" x1="261" y1="156" x2="261" y2="229.801" gradientUnits="userSpaceOnUse">
<stop stop-color="#E6EDD1"/>
<stop offset="0.649557" stop-color="#D3E9EB" stop-opacity="0"/>
<stop offset="1" stop-color="#DBF2F4" stop-opacity="0"/>
</linearGradient>
</defs>
</svg>
