<svg width="201" height="146" viewBox="0 0 201 146" fill="none" xmlns="http://www.w3.org/2000/svg">
<g clip-path="url(#clip0_228_4439)">
<path d="M51.3975 142.187C63.1808 152.46 111.101 140.25 145.364 119.343C176.851 100.13 173.511 61.4067 157.084 39.6401C139.221 15.9734 89.3942 -14.1633 70.7508 7.39339C35.5742 48.0567 2.03413 36.9267 23.9675 74.4967C41.5308 104.547 32.5908 125.79 51.3975 142.187Z" fill="#F5F6FA"/>
<path d="M45.9668 82.4666L44.7202 85.6866L44.6535 81.2266C42.1544 78.9776 39.4222 77.0019 36.5035 75.3332L35.4602 79.7532L34.5668 74.2832C31.2652 72.5761 27.7622 71.2905 24.1401 70.4566L23.6268 75.4566L22.0568 70.0566C18.7611 69.4777 15.4004 69.3655 12.0735 69.7232L13.3001 72.9232C13.3001 72.9232 11.8701 71.2932 10.5901 69.9232C7.24383 70.4503 3.99826 71.488 0.966797 72.9999C3.31659 76.7363 6.01893 80.2389 9.0368 83.4599C11.0935 83.3899 13.3001 83.3332 13.3001 83.3332L10.3001 84.7666C13.1002 87.6595 16.2049 90.2412 19.5601 92.4665C21.6401 91.7999 24.3868 90.8332 24.3868 90.8332L20.9001 93.3332C24.5008 95.5611 28.4857 97.0974 32.6502 97.8632L36.7268 95.2865L34.7002 98.1399C40.3668 98.6832 46.5035 97.5199 52.9735 93.6332C52.3668 90.2899 49.8302 86.2666 45.9668 82.4666Z" fill="white" stroke="#88CC00" stroke-width="2" stroke-linecap="round" stroke-linejoin="round"/>
<path d="M0.966797 73.0034L52.9735 93.6201" stroke="#88CC00" stroke-width="2" stroke-linecap="round" stroke-linejoin="round"/>
<path d="M55.0939 79.1333L51.8239 80.8533L54.8872 77.1433C54.4216 73.4418 53.5761 69.7982 52.3639 66.27L48.4272 69.1266L51.5239 63.9733C50.0302 60.1319 48.0771 56.4854 45.7072 53.1133L41.8006 56.83L44.3006 51.2333C42.0279 48.3294 39.3688 45.75 36.3972 43.5666L35.1506 47.09C35.1506 47.09 35.1272 44.6933 35.0372 42.63C31.9674 40.5976 28.6038 39.0484 25.0639 38.0366C24.3625 42.8573 24.1125 47.7329 24.3172 52.6C26.0439 54.0666 27.8672 55.6666 27.8672 55.6666L24.4205 54.62C24.6783 59.0764 25.4011 63.4938 26.5772 67.8C28.7272 68.8 31.6472 70.03 31.6472 70.03L27.0839 69.4933C28.4872 73.8833 30.5305 78.16 33.4806 81.91L38.6039 82.8133L34.9672 83.6466C39.1906 88.28 45.0106 91.8766 52.9972 93.4733C54.8272 90.29 55.5772 85.1099 55.0939 79.1333Z" fill="#CEF471"/>
<path d="M25.0605 38.0432L52.9906 93.4732" stroke="white" stroke-width="2" stroke-linecap="round" stroke-linejoin="round"/>
<path d="M55.08 30.5034H143.903C144.375 30.5025 144.842 30.5946 145.279 30.7745C145.715 30.9543 146.111 31.2183 146.445 31.5514C146.779 31.8845 147.044 32.2801 147.225 32.7157C147.406 33.1513 147.5 33.6184 147.5 34.0901V90.5034H51.5V34.0901C51.5009 33.1403 51.8781 32.2295 52.5491 31.5573C53.2201 30.885 54.1302 30.5061 55.08 30.5034V30.5034Z" fill="#88CC00"/>
<path d="M142.494 36.1699H56.4941V85.5033H142.494V36.1699Z" fill="white" stroke="#1D1E26" stroke-width="2" stroke-linecap="round" stroke-linejoin="round"/>
<path d="M99.493 34.8834C100.294 34.8834 100.943 34.2342 100.943 33.4334C100.943 32.6326 100.294 31.9834 99.493 31.9834C98.6922 31.9834 98.043 32.6326 98.043 33.4334C98.043 34.2342 98.6922 34.8834 99.493 34.8834Z" fill="#1D1E26"/>
<path d="M165.713 116.837L33.6061 117.17C33.4157 117.169 33.2284 117.122 33.0592 117.035C32.8901 116.947 32.744 116.821 32.6328 116.667V120.033C32.6337 120.332 32.7531 120.619 32.965 120.83C33.1768 121.041 33.4637 121.16 33.7628 121.16L165.573 120.827C165.871 120.826 166.158 120.707 166.369 120.496C166.58 120.285 166.699 119.998 166.7 119.7V116.333C166.587 116.49 166.439 116.617 166.267 116.704C166.096 116.792 165.906 116.837 165.713 116.837V116.837Z" fill="#88CC00"/>
<path d="M165.047 117.17H33.9402C33.7135 117.169 33.4917 117.105 33.2993 116.985C33.1069 116.865 32.9516 116.695 32.8507 116.492C32.7498 116.289 32.7072 116.062 32.7277 115.836C32.7482 115.61 32.831 115.395 32.9668 115.213L51.5002 90.5034H147.5L166.034 115.213C166.17 115.396 166.253 115.613 166.273 115.839C166.293 116.066 166.249 116.294 166.147 116.498C166.044 116.701 165.887 116.872 165.693 116.99C165.498 117.109 165.275 117.171 165.047 117.17V117.17Z" fill="white" stroke="#1D1E26" stroke-width="2" stroke-linecap="round" stroke-linejoin="round"/>
<mask id="mask0_228_4439" style="mask-type:alpha" maskUnits="userSpaceOnUse" x="31" y="89" width="137" height="30">
<path d="M165.047 117.17H33.9402C33.7135 117.169 33.4917 117.105 33.2993 116.985C33.1069 116.865 32.9516 116.695 32.8507 116.492C32.7498 116.289 32.7072 116.062 32.7277 115.836C32.7482 115.61 32.831 115.395 32.9668 115.213L51.5002 90.5034H147.5L166.034 115.213C166.17 115.396 166.253 115.613 166.273 115.839C166.293 116.066 166.249 116.294 166.147 116.498C166.044 116.701 165.887 116.872 165.693 116.99C165.498 117.109 165.275 117.171 165.047 117.17V117.17Z" fill="white" stroke="#1D1E26" stroke-width="2" stroke-linecap="round" stroke-linejoin="round"/>
</mask>
<g mask="url(#mask0_228_4439)">
<path d="M35.3105 71.8367V135.837" stroke="#CEF471" stroke-width="2" stroke-linecap="round" stroke-linejoin="round"/>
<path d="M45.1836 71.8367V135.837" stroke="#CEF471" stroke-width="2" stroke-linecap="round" stroke-linejoin="round"/>
<path d="M55.0566 71.8367V135.837" stroke="#CEF471" stroke-width="2" stroke-linecap="round" stroke-linejoin="round"/>
<path d="M64.9277 71.8367V135.837" stroke="#CEF471" stroke-width="2" stroke-linecap="round" stroke-linejoin="round"/>
<path d="M74.8008 71.8367V135.837" stroke="#CEF471" stroke-width="2" stroke-linecap="round" stroke-linejoin="round"/>
<path d="M84.6699 71.8367V135.837" stroke="#CEF471" stroke-width="2" stroke-linecap="round" stroke-linejoin="round"/>
<path d="M94.5449 71.8367V135.837" stroke="#CEF471" stroke-width="2" stroke-linecap="round" stroke-linejoin="round"/>
<path d="M104.418 71.8367V135.837" stroke="#CEF471" stroke-width="2" stroke-linecap="round" stroke-linejoin="round"/>
<path d="M114.287 71.8367V135.837" stroke="#CEF471" stroke-width="2" stroke-linecap="round" stroke-linejoin="round"/>
<path d="M124.16 71.8367V135.837" stroke="#CEF471" stroke-width="2" stroke-linecap="round" stroke-linejoin="round"/>
<path d="M134.033 71.8367V135.837" stroke="#CEF471" stroke-width="2" stroke-linecap="round" stroke-linejoin="round"/>
<path d="M143.904 71.8367V135.837" stroke="#CEF471" stroke-width="2" stroke-linecap="round" stroke-linejoin="round"/>
<path d="M153.777 71.8367V135.837" stroke="#CEF471" stroke-width="2" stroke-linecap="round" stroke-linejoin="round"/>
<path d="M163.646 71.8367V135.837" stroke="#CEF471" stroke-width="2" stroke-linecap="round" stroke-linejoin="round"/>
<path d="M-3.16602 90.1201H202.617" stroke="#CEF471" stroke-width="2" stroke-linecap="round" stroke-linejoin="round"/>
<path d="M-3.16602 99.2634H202.617" stroke="#CEF471" stroke-width="2" stroke-linecap="round" stroke-linejoin="round"/>
<path d="M-3.16602 108.407H202.617" stroke="#CEF471" stroke-width="2" stroke-linecap="round" stroke-linejoin="round"/>
<path d="M-3.16602 117.55H202.617" stroke="#CEF471" stroke-width="2" stroke-linecap="round" stroke-linejoin="round"/>
</g>
<path d="M165.047 117.17H33.9402C33.7135 117.169 33.4917 117.105 33.2993 116.985C33.1069 116.865 32.9516 116.695 32.8507 116.492C32.7498 116.289 32.7072 116.062 32.7277 115.836C32.7482 115.61 32.831 115.395 32.9668 115.213L51.5002 90.5034H147.5L166.034 115.213C166.17 115.396 166.253 115.613 166.273 115.839C166.293 116.066 166.249 116.294 166.147 116.498C166.044 116.701 165.887 116.872 165.693 116.99C165.498 117.109 165.275 117.171 165.047 117.17V117.17Z" stroke="#CEF471" stroke-width="2" stroke-linecap="round" stroke-linejoin="round"/>
<path d="M154.803 21.72L149.16 27.72" stroke="#1D1E26" stroke-width="2" stroke-linecap="round" stroke-linejoin="round"/>
<path d="M156.327 28.0532L151.277 30.5532" stroke="#1D1E26" stroke-width="2" stroke-linecap="round" stroke-linejoin="round"/>
<path d="M148.727 45.1699V74.1699" stroke="#1D1E26" stroke-width="2" stroke-linecap="round" stroke-linejoin="round"/>
<path d="M80.5605 52.2134L85.3939 57.0467" stroke="#1D1E26" stroke-width="4" stroke-linecap="round" stroke-linejoin="round"/>
<path d="M85.3939 52.2134L80.5605 57.0467" stroke="#1D1E26" stroke-width="4" stroke-linecap="round" stroke-linejoin="round"/>
<path d="M113.227 52.2134L118.06 57.0467" stroke="#1D1E26" stroke-width="4" stroke-linecap="round" stroke-linejoin="round"/>
<path d="M118.06 52.2134L113.227 57.0467" stroke="#1D1E26" stroke-width="4" stroke-linecap="round" stroke-linejoin="round"/>
<path d="M77.0605 66.3799H121.394" stroke="#1D1E26" stroke-width="4" stroke-linecap="round" stroke-linejoin="round"/>
<path d="M109.727 66.3799H115.727V70.0466C115.727 70.8422 115.411 71.6053 114.848 72.1679C114.285 72.7305 113.522 73.0466 112.727 73.0466V73.0466C111.931 73.0466 111.168 72.7305 110.605 72.1679C110.043 71.6053 109.727 70.8422 109.727 70.0466V66.3799Z" stroke="#1D1E26" stroke-width="4" stroke-linecap="round" stroke-linejoin="round"/>
<path d="M112.727 66.3799V69.7132" stroke="#1D1E26" stroke-width="4" stroke-linecap="round" stroke-linejoin="round"/>
<path d="M168.893 94.86C179.297 94.86 187.73 92.6632 187.73 89.9533C187.73 87.2434 179.297 85.0466 168.893 85.0466C158.49 85.0466 150.057 87.2434 150.057 89.9533C150.057 92.6632 158.49 94.86 168.893 94.86Z" fill="white"/>
<path d="M168.893 93.5932C178.072 93.5932 185.513 91.9635 185.513 89.9532C185.513 87.9429 178.072 86.3132 168.893 86.3132C159.714 86.3132 152.273 87.9429 152.273 89.9532C152.273 91.9635 159.714 93.5932 168.893 93.5932Z" fill="#88CC00"/>
<path d="M152.848 87.3834C156.164 85.9801 162.111 85.05 168.898 85.05C176.084 85.05 182.331 86.0967 185.508 87.6401" stroke="#446600" stroke-width="2" stroke-linecap="round" stroke-linejoin="round"/>
<path d="M190.564 95.1768C189.39 95.1755 188.225 95.3926 187.13 95.8168C187.05 97.1501 186.824 100.043 186.831 99.9601C187.76 99.2261 188.886 98.7837 190.067 98.6887C191.248 98.5937 192.43 98.8503 193.465 99.4262C194.501 100.002 195.342 100.872 195.884 101.925C196.426 102.978 196.644 104.168 196.51 105.345C196.377 106.522 195.898 107.634 195.134 108.539C194.37 109.444 193.355 110.103 192.217 110.433C191.08 110.762 189.87 110.747 188.74 110.391C187.611 110.034 186.612 109.35 185.871 108.427C185.871 108.353 185.447 111.093 185.174 112.49C186.399 113.336 187.807 113.881 189.282 114.083C190.757 114.284 192.259 114.136 193.667 113.65C195.074 113.164 196.348 112.354 197.384 111.285C198.421 110.216 199.192 108.918 199.634 107.496C200.077 106.075 200.179 104.569 199.932 103.1C199.686 101.632 199.097 100.242 198.214 99.0428C197.332 97.8437 196.179 96.8691 194.85 96.1975C193.521 95.5259 192.053 95.1763 190.564 95.1768V95.1768Z" fill="white" stroke="#1D1E26" stroke-width="2" stroke-linecap="round" stroke-linejoin="round"/>
<path d="M168.457 88.78C168.448 88.8066 168.431 88.8299 168.409 88.8463C168.386 88.8628 168.359 88.8717 168.33 88.8717C168.302 88.8717 168.275 88.8628 168.252 88.8463C168.23 88.8299 168.213 88.8066 168.204 88.78C167.804 87.47 166.204 83.2233 161.837 81.9166C155.064 79.8833 148.887 74.4033 155.1 70C161.05 65.7866 168.897 66.5566 170.467 57.7766C170.473 57.7553 170.486 57.7366 170.504 57.7239C170.522 57.7113 170.544 57.7054 170.566 57.7074C170.588 57.7094 170.608 57.7191 170.624 57.7349C170.639 57.7506 170.649 57.7713 170.65 57.7933C170.714 62.23 170.907 63.7933 166.627 68.3166C161.96 73.24 162.224 73.4966 166.11 77.9C169.877 82.1633 169.99 84.73 168.457 88.78Z" fill="#CEF471"/>
<path d="M169.27 69.7633C169.28 69.7437 169.296 69.728 169.315 69.7187C169.335 69.7094 169.358 69.707 169.379 69.7121C169.4 69.7171 169.419 69.7292 169.433 69.7464C169.446 69.7635 169.453 69.7848 169.453 69.8067C169.453 71.03 169.697 74.4033 172.843 76.08C176.727 78.1533 178.283 81.52 175.693 84.63C174.163 86.46 173.087 87.6633 172.46 88.34C172.445 88.3559 172.424 88.3657 172.402 88.3676C172.381 88.3694 172.359 88.3632 172.341 88.3501C172.323 88.337 172.311 88.3179 172.307 88.2963C172.302 88.2748 172.306 88.2524 172.317 88.2333C173.25 86.6667 174.983 83.1933 173.103 81.52C170.833 79.49 166.573 75.4967 169.27 69.7633Z" fill="#CEF471"/>
<path d="M168.896 94.5434C158.543 94.5434 150.143 92.3667 150.062 89.6734C150.116 92.2167 150.819 118.733 157.023 124.3C157.023 124.3 157.023 129.047 168.896 129.047C180.769 129.047 180.766 124.3 180.766 124.3C186.966 118.733 187.673 92.2167 187.726 89.6667C187.633 92.3667 179.246 94.5434 168.896 94.5434Z" fill="white" stroke="#1D1E26" stroke-width="2" stroke-linecap="round" stroke-linejoin="round"/>
</g>
<defs>
<clipPath id="clip0_228_4439">
<rect width="200" height="146" fill="white" transform="translate(0.5)"/>
</clipPath>
</defs>
</svg>
