<svg width="81" height="75" viewBox="0 0 81 75" fill="none" xmlns="http://www.w3.org/2000/svg">
<g clip-path="url(#clip0_1681_15768)">
<path d="M21.3001 74.1337H41.7429V25.7598L21.3001 38.9472V74.1337Z" fill="white" stroke="#0F8B00" stroke-width="2" stroke-linecap="round" stroke-linejoin="round"/>
<path d="M0.857193 74.1337H21.3V25.7598L0.857193 38.9472V74.1337Z" fill="white" stroke="#0F8B00" stroke-width="2" stroke-linecap="round" stroke-linejoin="round"/>
<path d="M52.4228 0.866211H66.4113C72.305 0.866211 77.0828 5.69586 77.0828 11.6535V60.7207C77.0828 66.6783 72.305 71.508 66.4113 71.508H52.4228C46.5291 71.508 41.7513 66.6783 41.7513 60.7207V11.6535C41.7513 5.69586 46.5291 0.866211 52.4228 0.866211Z" fill="white" stroke="#0F8B00" stroke-width="2" stroke-linecap="round" stroke-linejoin="round"/>
<path d="M38.6828 60.3745H80.1428V74.1338H38.6828V60.3745Z" fill="white" stroke="#0F8B00" stroke-width="2" stroke-linecap="round" stroke-linejoin="round"/>
<path d="M76.6885 10.5015H41.7428" stroke="#0F8B00" stroke-width="2" stroke-linecap="round" stroke-linejoin="round"/>
<path d="M70.697 15.5703V51.1728" stroke="#0F8B00" stroke-width="2" stroke-linecap="round" stroke-linejoin="round"/>
<path d="M63.1714 15.5703V51.1728" stroke="#0F8B00" stroke-width="2" stroke-linecap="round" stroke-linejoin="round"/>
<path d="M55.6543 15.5703V51.1728" stroke="#0F8B00" stroke-width="2" stroke-linecap="round" stroke-linejoin="round"/>
<path d="M48.1287 15.5703V51.1728" stroke="#0F8B00" stroke-width="2" stroke-linecap="round" stroke-linejoin="round"/>
<path d="M36.1201 44.189H27.2573" stroke="#0F8B00" stroke-width="2" stroke-linecap="round" stroke-linejoin="round"/>
<path d="M36.1201 48.9287H27.2573" stroke="#0F8B00" stroke-width="2" stroke-linecap="round" stroke-linejoin="round"/>
<path d="M36.1201 53.6768H27.2573" stroke="#0F8B00" stroke-width="2" stroke-linecap="round" stroke-linejoin="round"/>
<path d="M36.1201 58.4248H27.2573" stroke="#0F8B00" stroke-width="2" stroke-linecap="round" stroke-linejoin="round"/>
<path d="M36.1201 63.1729H27.2573" stroke="#0F8B00" stroke-width="2" stroke-linecap="round" stroke-linejoin="round"/>
<path d="M36.1201 67.9209H27.2573" stroke="#0F8B00" stroke-width="2" stroke-linecap="round" stroke-linejoin="round"/>
<path d="M15.5142 44.189H6.65131" stroke="#0F8B00" stroke-width="2" stroke-linecap="round" stroke-linejoin="round"/>
<path d="M15.5142 48.9287H6.65131" stroke="#0F8B00" stroke-width="2" stroke-linecap="round" stroke-linejoin="round"/>
<path d="M15.5142 53.6768H6.65131" stroke="#0F8B00" stroke-width="2" stroke-linecap="round" stroke-linejoin="round"/>
<path d="M15.5142 58.4248H6.65131" stroke="#0F8B00" stroke-width="2" stroke-linecap="round" stroke-linejoin="round"/>
<path d="M15.5142 63.1729H6.65131" stroke="#0F8B00" stroke-width="2" stroke-linecap="round" stroke-linejoin="round"/>
<path d="M15.5142 67.9209H6.65131" stroke="#0F8B00" stroke-width="2" stroke-linecap="round" stroke-linejoin="round"/>
<path d="M80.1428 17.6411H75.3085" stroke="#0F8B00" stroke-width="2" stroke-linecap="round" stroke-linejoin="round"/>
<path d="M80.1428 22.0513H75.3085" stroke="#0F8B00" stroke-width="2" stroke-linecap="round" stroke-linejoin="round"/>
<path d="M80.1428 26.4526H75.3085" stroke="#0F8B00" stroke-width="2" stroke-linecap="round" stroke-linejoin="round"/>
<path d="M80.1428 30.8628H75.3085" stroke="#0F8B00" stroke-width="2" stroke-linecap="round" stroke-linejoin="round"/>
<path d="M80.1428 35.2734H75.3085" stroke="#0F8B00" stroke-width="2" stroke-linecap="round" stroke-linejoin="round"/>
<path d="M80.1428 39.6836H75.3085" stroke="#0F8B00" stroke-width="2" stroke-linecap="round" stroke-linejoin="round"/>
<path d="M80.1428 44.0938H75.3085" stroke="#0F8B00" stroke-width="2" stroke-linecap="round" stroke-linejoin="round"/>
<path d="M80.1428 48.5039H75.3085" stroke="#0F8B00" stroke-width="2" stroke-linecap="round" stroke-linejoin="round"/>
<path d="M80.1428 52.9141H75.3085" stroke="#0F8B00" stroke-width="2" stroke-linecap="round" stroke-linejoin="round"/>
<path d="M80.1428 57.3159H75.3085" stroke="#0F8B00" stroke-width="2" stroke-linecap="round" stroke-linejoin="round"/>
</g>
<defs>
<clipPath id="clip0_1681_15768">
<rect width="81" height="75" fill="white" transform="matrix(-1 0 0 1 81 0)"/>
</clipPath>
</defs>
</svg>
